<svg version="1.1" xmlns="http://www.w3.org/2000/svg" xmlns:xlink="http://www.w3.org/1999/xlink" width="604" height="503"><defs/><g><g transform="translate(-46,-41) scale(1,1)"><rect fill="#C0C0C0" stroke="none" x="63" y="61" width="91.7099609375" height="152" opacity="0.2"/></g><g transform="translate(-46,-41) scale(1,1)"><rect fill="#ffffff" stroke="none" x="56" y="54" width="91.7099609375" height="152"/></g><g transform="translate(-46,-41) scale(1,1)"><path fill="none" stroke="#000000" d="M 56 54 L 147.7099609375 54 L 147.7099609375 206 L 56 206 L 56 54 Z Z" stroke-miterlimit="10"/></g><g transform="translate(-46,-41) scale(1,1)"><path fill="none" stroke="#000000" d="M 56 79 L 147.7099609375 79" stroke-miterlimit="10"/></g><g transform="translate(-46,-41) scale(1,1)"><g><path fill="none" stroke="none"/><text fill="#000000" stroke="none" font-family="Arial" font-size="13px" font-style="normal" font-weight="bold" text-decoration="none" x="83.926025390625" y="72">Wood</text></g></g><g transform="translate(-46,-41) scale(1,1)"><g><path fill="none" stroke="none"/><text fill="#000000" stroke="none" font-family="Arial" font-size="13px" font-style="normal" font-weight="normal" text-decoration="none" x="61" y="95">+species</text></g></g><g transform="translate(-46,-41) scale(1,1)"><g><path fill="none" stroke="none"/><text fill="#000000" stroke="none" font-family="Arial" font-size="13px" font-style="normal" font-weight="normal" text-decoration="none" x="61" y="110">+grade</text></g></g><g transform="translate(-46,-41) scale(1,1)"><g><path fill="none" stroke="none"/><text fill="#000000" stroke="none" font-family="Arial" font-size="13px" font-style="normal" font-weight="normal" text-decoration="none" x="61" y="125">+Fb</text></g></g><g transform="translate(-46,-41) scale(1,1)"><g><path fill="none" stroke="none"/><text fill="#000000" stroke="none" font-family="Arial" font-size="13px" font-style="normal" font-weight="normal" text-decoration="none" x="61" y="140">+Ft</text></g></g><g transform="translate(-46,-41) scale(1,1)"><g><path fill="none" stroke="none"/><text fill="#000000" stroke="none" font-family="Arial" font-size="13px" font-style="normal" font-weight="normal" text-decoration="none" x="61" y="155">+Fv</text></g></g><g transform="translate(-46,-41) scale(1,1)"><g><path fill="none" stroke="none"/><text fill="#000000" stroke="none" font-family="Arial" font-size="13px" font-style="normal" font-weight="normal" text-decoration="none" x="61" y="170">+Fcp</text></g></g><g transform="translate(-46,-41) scale(1,1)"><g><path fill="none" stroke="none"/><text fill="#000000" stroke="none" font-family="Arial" font-size="13px" font-style="normal" font-weight="normal" text-decoration="none" x="61" y="185">+Fc</text></g></g><g transform="translate(-46,-41) scale(1,1)"><g><path fill="none" stroke="none"/><text fill="#000000" stroke="none" font-family="Arial" font-size="13px" font-style="normal" font-weight="normal" text-decoration="none" x="61" y="200">+Emin</text></g></g><g transform="translate(-46,-41) scale(1,1)"><rect fill="#C0C0C0" stroke="none" x="257" y="479" width="91.7099609375" height="62" opacity="0.2"/></g><g transform="translate(-46,-41) scale(1,1)"><rect fill="#ffffff" stroke="none" x="250" y="472" width="91.7099609375" height="62"/></g><g transform="translate(-46,-41) scale(1,1)"><path fill="none" stroke="#000000" d="M 250 472 L 341.7099609375 472 L 341.7099609375 534 L 250 534 L 250 472 Z Z" stroke-miterlimit="10"/></g><g transform="translate(-46,-41) scale(1,1)"><path fill="none" stroke="#000000" d="M 250 497 L 341.7099609375 497" stroke-miterlimit="10"/></g><g transform="translate(-46,-41) scale(1,1)"><g><path fill="none" stroke="none"/><text fill="#000000" stroke="none" font-family="Arial" font-size="13px" font-style="normal" font-weight="bold" text-decoration="none" x="280.319091796875" y="490">Steel</text></g></g><g transform="translate(-46,-41) scale(1,1)"><g><path fill="none" stroke="none"/><text fill="#000000" stroke="none" font-family="Arial" font-size="13px" font-style="normal" font-weight="normal" text-decoration="none" x="255" y="513">+Fy</text></g></g><g transform="translate(-46,-41) scale(1,1)"><g><path fill="none" stroke="none"/><text fill="#000000" stroke="none" font-family="Arial" font-size="13px" font-style="normal" font-weight="normal" text-decoration="none" x="255" y="528">+Fu</text></g></g><g transform="translate(-46,-41) scale(1,1)"><path fill="none" stroke="#000000" d="M 295 471 L 295 375" stroke-miterlimit="10"/></g><g transform="translate(-46,-41) scale(1,1)"><path fill="#FFFFFF" stroke="none" d="M 303.419035512032 395.3253497152483 L 295 375 L 286.580964487968 395.3253497152483"/></g><g transform="translate(-46,-41) scale(1,1)"><path fill="none" stroke="#000000" d="M 303.419035512032 395.3253497152483 L 295 375 L 286.580964487968 395.3253497152483 L 303.419035512032 395.3253497152483" stroke-miterlimit="10"/></g><g transform="translate(-46,-41) scale(1,1)"><rect fill="#C0C0C0" stroke="none" x="252" y="319" width="101.47265625" height="62" opacity="0.2"/></g><g transform="translate(-46,-41) scale(1,1)"><rect fill="#ffffff" stroke="none" x="245" y="312" width="101.47265625" height="62"/></g><g transform="translate(-46,-41) scale(1,1)"><path fill="none" stroke="#000000" d="M 245 312 L 346.47265625 312 L 346.47265625 374 L 245 374 L 245 312 Z Z" stroke-miterlimit="10"/></g><g transform="translate(-46,-41) scale(1,1)"><path fill="none" stroke="#000000" d="M 245 337 L 346.47265625 337" stroke-miterlimit="10"/></g><g transform="translate(-46,-41) scale(1,1)"><g><path fill="none" stroke="none"/><text fill="#000000" stroke="none" font-family="Arial" font-size="13px" font-style="normal" font-weight="bold" text-decoration="none" x="249.5" y="330">DuctileMaterial</text></g></g><g transform="translate(-46,-41) scale(1,1)"><g><path fill="none" stroke="none"/><text fill="#000000" stroke="none" font-family="Arial" font-size="13px" font-style="normal" font-weight="normal" text-decoration="none" x="250" y="353">+yield_stress</text></g></g><g transform="translate(-46,-41) scale(1,1)"><g><path fill="none" stroke="none"/><text fill="#000000" stroke="none" font-family="Arial" font-size="13px" font-style="normal" font-weight="normal" text-decoration="none" x="250" y="368">+tensile_limit</text></g></g><g transform="translate(-46,-41) scale(1,1)"><rect fill="#C0C0C0" stroke="none" x="415" y="319" width="91.7099609375" height="62" opacity="0.2"/></g><g transform="translate(-46,-41) scale(1,1)"><rect fill="#ffffff" stroke="none" x="408" y="312" width="91.7099609375" height="62"/></g><g transform="translate(-46,-41) scale(1,1)"><path fill="none" stroke="#000000" d="M 408 312 L 499.7099609375 312 L 499.7099609375 374 L 408 374 L 408 312 Z Z" stroke-miterlimit="10"/></g><g transform="translate(-46,-41) scale(1,1)"><path fill="none" stroke="#000000" d="M 408 337 L 499.7099609375 337" stroke-miterlimit="10"/></g><g transform="translate(-46,-41) scale(1,1)"><g><path fill="none" stroke="none"/><text fill="#000000" stroke="none" font-family="Arial" font-size="13px" font-style="normal" font-weight="bold" text-decoration="none" x="425.680908203125" y="330">Concrete</text></g></g><g transform="translate(-46,-41) scale(1,1)"><g><path fill="none" stroke="none"/><text fill="#000000" stroke="none" font-family="Arial" font-size="13px" font-style="normal" font-weight="normal" text-decoration="none" x="413" y="353">+fc</text></g></g><g transform="translate(-46,-41) scale(1,1)"><g><path fill="none" stroke="none"/><text fill="#000000" stroke="none" font-family="Arial" font-size="13px" font-style="normal" font-weight="normal" text-decoration="none" x="413" y="368">+fr</text></g></g><g transform="translate(-46,-41) scale(1,1)"><rect fill="#C0C0C0" stroke="none" x="455" y="105" width="119.8935546875" height="64" opacity="0.2"/></g><g transform="translate(-46,-41) scale(1,1)"><rect fill="#ffffff" stroke="none" x="448" y="98" width="119.8935546875" height="64"/></g><g transform="translate(-46,-41) scale(1,1)"><path fill="none" stroke="#000000" d="M 448 98 L 567.8935546875 98 L 567.8935546875 162 L 448 162 L 448 98 Z Z" stroke-miterlimit="10"/></g><g transform="translate(-46,-41) scale(1,1)"><path fill="none" stroke="#000000" d="M 448 123 L 567.8935546875 123" stroke-miterlimit="10"/></g><g transform="translate(-46,-41) scale(1,1)"><g><path fill="none" stroke="none"/><text fill="#000000" stroke="none" font-family="Arial" font-size="13px" font-style="normal" font-weight="bold" text-decoration="none" x="464.233642578125" y="116">ConcreteBase</text></g></g><g transform="translate(-46,-41) scale(1,1)"><g><path fill="none" stroke="none"/><text fill="#000000" stroke="none" font-family="Arial" font-size="13px" font-style="normal" font-weight="normal" text-decoration="none" x="453" y="141">+beta</text></g></g><g transform="translate(-46,-41) scale(1,1)"><g><path fill="none" stroke="none"/><text fill="#000000" stroke="none" font-family="Arial" font-size="13px" font-style="normal" font-weight="normal" text-decoration="none" x="453" y="156">+compressive_limit</text></g></g><g transform="translate(-46,-41) scale(1,1)"><path fill="none" stroke="#000000" d="M 461 311 L 499 163" stroke-miterlimit="10"/></g><g transform="translate(-46,-41) scale(1,1)"><path fill="#FFFFFF" stroke="none" d="M 502.09981900302483 184.7805216225068 L 499 163 L 485.790748500435 180.59305757454456"/></g><g transform="translate(-46,-41) scale(1,1)"><path fill="none" stroke="#000000" d="M 502.09981900302483 184.7805216225068 L 499 163 L 485.790748500435 180.59305757454456 L 502.09981900302483 184.7805216225068" stroke-miterlimit="10"/></g><g transform="translate(-46,-41) scale(1,1)"><rect fill="#C0C0C0" stroke="none" x="543" y="319" width="104" height="47" opacity="0.2"/></g><g transform="translate(-46,-41) scale(1,1)"><rect fill="#ffffff" stroke="none" x="536" y="312" width="104" height="47"/></g><g transform="translate(-46,-41) scale(1,1)"><path fill="none" stroke="#000000" d="M 536 312 L 640 312 L 640 359 L 536 359 L 536 312 Z Z" stroke-miterlimit="10"/></g><g transform="translate(-46,-41) scale(1,1)"><path fill="none" stroke="#000000" d="M 536 337 L 640 337" stroke-miterlimit="10"/></g><g transform="translate(-46,-41) scale(1,1)"><g><path fill="none" stroke="none"/><text fill="#000000" stroke="none" font-family="Arial" font-size="13px" font-style="normal" font-weight="bold" text-decoration="none" x="561.27001953125" y="330">Masonry</text></g></g><g transform="translate(-46,-41) scale(1,1)"><g><path fill="none" stroke="none"/><text fill="#000000" stroke="none" font-family="Arial" font-size="13px" font-style="normal" font-weight="normal" text-decoration="none" x="541" y="353">+fm</text></g></g><g transform="translate(-46,-41) scale(1,1)"><path fill="none" stroke="#000000" d="M 579 311 L 520 163" stroke-miterlimit="10"/></g><g transform="translate(-46,-41) scale(1,1)"><path fill="#FFFFFF" stroke="none" d="M 535.347162531613 178.76275998130572 L 520 163 L 519.7061282250785 184.9980371710729"/></g><g transform="translate(-46,-41) scale(1,1)"><path fill="none" stroke="#000000" d="M 535.347162531613 178.76275998130572 L 520 163 L 519.7061282250785 184.9980371710729 L 535.347162531613 178.76275998130572" stroke-miterlimit="10"/></g><g transform="translate(-46,-41) scale(1,1)"><rect fill="#C0C0C0" stroke="none" x="206" y="58" width="192" height="158" opacity="0.2"/></g><g transform="translate(-46,-41) scale(1,1)"><rect fill="#ffffff" stroke="none" x="199" y="51" width="192" height="158"/></g><g transform="translate(-46,-41) scale(1,1)"><path fill="none" stroke="#000000" d="M 199 51 L 391 51 L 391 209 L 199 209 L 199 51 Z Z" stroke-miterlimit="10"/></g><g transform="translate(-46,-41) scale(1,1)"><path fill="none" stroke="#000000" d="M 199 89 L 391 89" stroke-miterlimit="10"/></g><g transform="translate(-46,-41) scale(1,1)"><path fill="none" stroke="#000000" d="M 199 172 L 391 172" stroke-miterlimit="10"/></g><g transform="translate(-46,-41) scale(1,1)"><g><path fill="none" stroke="none"/><text fill="#000000" stroke="none" font-family="Arial" font-size="13px" font-style="normal" font-weight="normal" text-decoration="none" x="260.31005859375" y="67">«dataclass»</text></g></g><g transform="translate(-46,-41) scale(1,1)"><g><path fill="none" stroke="none"/><text fill="#000000" stroke="none" font-family="Arial" font-size="13px" font-style="normal" font-weight="bold" text-decoration="none" x="270.4345703125" y="82">Material</text></g></g><g transform="translate(-46,-41) scale(1,1)"><g><path fill="none" stroke="none"/><text fill="#000000" stroke="none" font-family="Arial" font-size="13px" font-style="normal" font-weight="normal" text-decoration="none" x="204" y="105">+E: float</text></g></g><g transform="translate(-46,-41) scale(1,1)"><g><path fill="none" stroke="none"/><text fill="#000000" stroke="none" font-family="Arial" font-size="13px" font-style="normal" font-weight="normal" text-decoration="none" x="204" y="120">+specific_gravity: float</text></g></g><g transform="translate(-46,-41) scale(1,1)"><g><path fill="none" stroke="none"/><text fill="#000000" stroke="none" font-family="Arial" font-size="13px" font-style="normal" font-weight="normal" text-decoration="none" x="204" y="134.5">+name: str</text></g></g><g transform="translate(-46,-41) scale(1,1)"><g><path fill="none" stroke="none"/><text fill="#000000" stroke="none" font-family="Arial" font-size="13px" font-style="normal" font-weight="normal" text-decoration="none" x="204" y="150">+short_name: str</text></g></g><g transform="translate(-46,-41) scale(1,1)"><g><path fill="none" stroke="none"/><text fill="#000000" stroke="none" font-family="Arial" font-size="13px" font-style="normal" font-weight="normal" text-decoration="none" x="204" y="165">+poissons_ratio: float</text></g></g><g transform="translate(-46,-41) scale(1,1)"><g><path fill="none" stroke="none"/><text fill="#000000" stroke="none" font-family="Arial" font-size="13px" font-style="normal" font-weight="normal" text-decoration="none" x="204" y="188">+stress(strain)</text></g></g><g transform="translate(-46,-41) scale(1,1)"><g><path fill="none" stroke="none"/><text fill="#000000" stroke="none" font-family="Arial" font-size="13px" font-style="normal" font-weight="normal" text-decoration="none" x="204" y="203">+elastic_modulus(strain)</text></g></g><g transform="translate(-46,-41) scale(1,1)"><path fill="none" stroke="#000000" d="M 295 311 L 295 210" stroke-miterlimit="10"/></g><g transform="translate(-46,-41) scale(1,1)"><path fill="#FFFFFF" stroke="none" d="M 303.419035512032 230.3253497152483 L 295 210 L 286.580964487968 230.3253497152483"/></g><g transform="translate(-46,-41) scale(1,1)"><path fill="none" stroke="#000000" d="M 303.419035512032 230.3253497152483 L 295 210 L 286.580964487968 230.3253497152483 L 303.419035512032 230.3253497152483" stroke-miterlimit="10"/></g><g transform="translate(-46,-41) scale(1,1)"><path fill="none" stroke="#000000" d="M 149 130 L 198 130" stroke-miterlimit="10"/></g><g transform="translate(-46,-41) scale(1,1)"><path fill="#FFFFFF" stroke="none" d="M 177.6746502847517 138.41903551203197 L 198 130 L 177.6746502847517 121.58096448796803"/></g><g transform="translate(-46,-41) scale(1,1)"><path fill="none" stroke="#000000" d="M 177.6746502847517 138.41903551203197 L 198 130 L 177.6746502847517 121.58096448796803 L 177.6746502847517 138.41903551203197" stroke-miterlimit="10"/></g><g transform="translate(-46,-41) scale(1,1)"><path fill="none" stroke="#000000" d="M 447 130 L 392 130" stroke-miterlimit="10"/></g><g transform="translate(-46,-41) scale(1,1)"><path fill="#FFFFFF" stroke="none" d="M 412.3253497152483 121.58096448796803 L 392 130 L 412.3253497152483 138.41903551203197"/></g><g transform="translate(-46,-41) scale(1,1)"><path fill="none" stroke="#000000" d="M 412.3253497152483 121.58096448796803 L 392 130 L 412.3253497152483 138.41903551203197 L 412.3253497152483 121.58096448796803" stroke-miterlimit="10"/></g></g></svg>